<svg width="100" height="100" viewBox="0 0 100 100" fill="none" xmlns="http://www.w3.org/2000/svg">
<g clip-path="url(#clip0_1_2)">
<path d="M38.44 24.2V58.28C38.44 64.4133 36.7333 69.2133 33.32 72.68C29.96 76.0933 25.2667 77.8 19.24 77.8C14.92 77.8 11.4 77 8.68 75.4C5.96 73.8 4.06667 71.56 3 68.68C1.93333 65.7467 1.74667 62.36 2.44 58.52L10.68 57C10.04 61.5867 10.3867 64.9733 11.72 67.16C13.0533 69.2933 15.56 70.36 19.24 70.36C23.24 70.36 25.9867 69.2133 27.48 66.92C29.0267 64.5733 29.8 61.16 29.8 56.68V24.2H38.44ZM97.1625 63C96.0958 66.2 94.4958 68.92 92.3625 71.16C90.2292 73.3467 87.7225 75 84.8425 76.12C81.9625 77.24 78.7892 77.8 75.3225 77.8C70.2558 77.8 65.8558 76.7067 62.1225 74.52C58.3892 72.3333 55.5092 69.2133 53.4825 65.16C51.4558 61.1067 50.4425 56.2533 50.4425 50.6C50.4425 44.9467 51.4558 40.0933 53.4825 36.04C55.5092 31.9867 58.3892 28.8667 62.1225 26.68C65.8558 24.4933 70.2292 23.4 75.2425 23.4C78.7092 23.4 81.8292 23.88 84.6025 24.84C87.4292 25.8 89.8292 27.24 91.8025 29.16C93.7758 31.08 95.2958 33.48 96.3625 36.36L88.2825 39.96C87.2158 36.8133 85.6692 34.52 83.6425 33.08C81.6158 31.5867 78.9758 30.84 75.7225 30.84C72.4692 30.84 69.6158 31.6133 67.1625 33.16C64.7092 34.7067 62.7892 36.9467 61.4025 39.88C60.0692 42.8133 59.4025 46.3867 59.4025 50.6C59.4025 54.76 60.0425 58.3333 61.3225 61.32C62.6025 64.2533 64.4425 66.4933 66.8425 68.04C69.2425 69.5867 72.1225 70.36 75.4825 70.36C78.7358 70.36 81.5358 69.5333 83.8825 67.88C86.2825 66.1733 87.9892 63.64 89.0025 60.28L97.1625 63Z" fill="white"/>
</g>
<defs>
<clipPath id="clip0_1_2">
<rect width="100" height="100" fill="white"/>
</clipPath>
</defs>
</svg>
